<svg xmlns="http://www.w3.org/2000/svg" x="0px" y="0px" width="38" height="38" viewBox="0,0,250,250">
<g fill="#c69720" fill-rule="nonzero" stroke="none" stroke-width="1" stroke-linecap="butt" stroke-linejoin="miter" stroke-miterlimit="10" stroke-dasharray="" stroke-dashoffset="0" font-family="none" font-weight="none" font-size="none" text-anchor="none" style="mix-blend-mode: normal"><g transform="scale(4,4)"><path d="M30,4c-15.439,0 -28,12.561 -28,28c0,15.439 12.561,28 28,28h3c15.439,0 28,-12.561 28,-28c0,-5.39905 -1.53916,-10.44357 -4.19727,-14.72461l5.23633,-5.23633l-2.82812,-2.82812l-4.78711,4.78711c-5.1404,-6.10787 -12.8348,-9.99805 -21.42383,-9.99805zM33,8c7.4864,0 14.18112,3.44695 18.58594,8.83594l-18.21094,18.21094l-11.71094,-11.71094l-2.82812,2.82812l14.53906,14.53906l20.50781,-20.50781c1.98001,3.48859 3.11719,7.51479 3.11719,11.80469c0,13.234 -10.767,24 -24,24c-13.233,0 -24,-10.766 -24,-24c0,-13.234 10.767,-24 24,-24z"></path></g></g>
</svg>